<svg xmlns="http://www.w3.org/2000/svg" width="34" height="34" viewBox="0 0 34 34" fill="none">
<path d="M16.8333 33.3333C14.5 33.3333 12.3125 32.8889 10.2708 32C8.22917 31.1111 6.45139 29.9097 4.9375 28.3958C3.42361 26.8819 2.22222 25.1042 1.33333 23.0625C0.444444 21.0208 0 18.8333 0 16.5C0 12.4444 1.29167 8.86806 3.875 5.77083C6.45833 2.67361 9.75 0.75 13.75 0C13.25 2.75 13.4028 5.4375 14.2083 8.0625C15.0139 10.6875 16.4028 12.9861 18.375 14.9583C20.3472 16.9306 22.6458 18.3194 25.2708 19.125C27.8958 19.9306 30.5833 20.0833 33.3333 19.5833C32.6111 23.5833 30.6944 26.875 27.5833 29.4583C24.4722 32.0417 20.8889 33.3333 16.8333 33.3333ZM16.8333 30C19.2778 30 21.5417 29.3889 23.625 28.1667C25.7083 26.9444 27.3472 25.2639 28.5417 23.125C26.1528 22.9028 23.8889 22.2986 21.75 21.3125C19.6111 20.3264 17.6944 18.9861 16 17.2917C14.3056 15.5972 12.9583 13.6806 11.9583 11.5417C10.9583 9.40278 10.3611 7.13889 10.1667 4.75C8.02778 5.94444 6.35417 7.59028 5.14583 9.6875C3.9375 11.7847 3.33333 14.0556 3.33333 16.5C3.33333 20.25 4.64583 23.4375 7.27083 26.0625C9.89583 28.6875 13.0833 30 16.8333 30Z" fill="#CEC4C6"/>
</svg>